<svg width="207" height="40" viewBox="0 0 207 40" fill="none" xmlns="http://www.w3.org/2000/svg">
<path d="M16.1485 34.8221C17.6737 34.3941 19.0631 33.5809 20.1833 32.4608C21.3034 31.3407 22.1166 29.9512 22.5446 28.426C22.5933 28.1957 22.55 27.9554 22.4239 27.7566C22.2978 27.5577 22.0989 27.4161 21.8697 27.362C21.6406 27.3079 21.3994 27.3456 21.1976 27.467C20.9959 27.5885 20.8497 27.784 20.7902 28.0118C20.4494 29.2427 19.7921 30.3628 18.8836 31.2606C17.9751 32.1584 16.8473 32.8025 15.6124 33.1287C15.4956 33.159 15.3861 33.2128 15.2907 33.2868C15.1953 33.3608 15.116 33.4535 15.0576 33.5591C14.9992 33.6648 14.9628 33.7812 14.9509 33.9014C14.9389 34.0215 14.9515 34.1428 14.988 34.2579C15.0244 34.373 15.0839 34.4795 15.1628 34.5709C15.2417 34.6622 15.3384 34.7366 15.447 34.7894C15.5556 34.8421 15.6738 34.8723 15.7944 34.8779C15.915 34.8835 16.0355 34.8646 16.1485 34.8221Z" fill="#4CAE4A"/>
<path d="M13.6998 23.0053C13.9412 23.0021 14.1717 22.9048 14.3424 22.7342C14.5131 22.5635 14.6104 22.3329 14.6135 22.0916V6.81401C14.5875 6.5883 14.4794 6.38004 14.3098 6.22886C14.1402 6.07768 13.9209 5.99414 13.6937 5.99414C13.4665 5.99414 13.2472 6.07768 13.0776 6.22886C12.908 6.38004 12.7999 6.5883 12.7739 6.81401V22.0916C12.7771 22.335 12.8761 22.5674 13.0494 22.7384C13.2227 22.9094 13.4563 23.0053 13.6998 23.0053Z" fill="#4CAE4A"/>
<path d="M4.12394 23.0054C4.36628 23.0054 4.59869 22.9091 4.77004 22.7378C4.9414 22.5664 5.03767 22.334 5.03767 22.0917V6.81411C5.03767 6.57178 4.9414 6.33937 4.77004 6.16801C4.59869 5.99665 4.36628 5.90039 4.12394 5.90039C3.8816 5.90039 3.64919 5.99665 3.47784 6.16801C3.30648 6.33937 3.21021 6.57178 3.21021 6.81411V22.0917C3.21021 22.334 3.30648 22.5664 3.47784 22.7378C3.64919 22.9091 3.8816 23.0054 4.12394 23.0054Z" fill="#4CAE4A"/>
<path d="M10.5201 23.0051C10.7615 23.002 10.9921 22.9047 11.1627 22.734C11.3334 22.5633 11.4307 22.3328 11.4338 22.0914V4.25543C11.4078 4.02971 11.2997 3.82145 11.1301 3.67027C10.9605 3.51909 10.7412 3.43555 10.514 3.43555C10.2868 3.43555 10.0675 3.51909 9.89794 3.67027C9.72834 3.82145 9.62024 4.02971 9.59424 4.25543V22.0914C9.59744 22.3349 9.69644 22.5672 9.86974 22.7383C10.043 22.9093 10.2766 23.0052 10.5201 23.0051Z" fill="#4CAE4A"/>
<path d="M7.30362 23.0052C7.54709 23.0052 7.78077 22.9093 7.95407 22.7383C8.12736 22.5673 8.22633 22.3349 8.22953 22.0915V0.819874C8.20351 0.594164 8.09541 0.385904 7.9258 0.23472C7.75619 0.08354 7.53692 0 7.30971 0C7.0825 0 6.86323 0.08354 6.69362 0.23472C6.52401 0.385904 6.41591 0.594164 6.38989 0.819874V22.0915C6.39305 22.3328 6.49033 22.5634 6.661 22.7341C6.83168 22.9048 7.06226 23.002 7.30362 23.0052Z" fill="#4CAE4A"/>
<path d="M13.712 39.8903C17.1379 39.8637 20.4292 38.5527 22.9352 36.2164C25.4411 33.8801 26.9794 30.6887 27.2458 27.273C27.5122 23.8573 26.4873 20.466 24.3739 17.7695C22.2605 15.0729 19.2122 13.2674 15.8318 12.71V14.5862C18.049 14.9945 20.1036 16.0272 21.754 17.5629C23.4045 19.0987 24.5823 21.0737 25.149 23.2557C25.7156 25.4378 25.6476 27.7363 24.953 29.8811C24.2583 32.0259 22.9658 33.9278 21.2275 35.3633C19.4891 36.7988 17.3771 37.7083 15.1397 37.9848C12.9022 38.2613 10.6323 37.8934 8.59683 36.9242C6.56129 35.9551 4.84469 34.4251 3.64878 32.514C2.45287 30.6029 1.82734 28.3901 1.84573 26.1357V12.8562C1.86068 12.7265 1.84804 12.5951 1.80863 12.4707C1.76923 12.3462 1.70396 12.2315 1.6171 12.134C1.53024 12.0366 1.42376 11.9586 1.30464 11.9052C1.18551 11.8518 1.05645 11.8242 0.925912 11.8242C0.795372 11.8242 0.666302 11.8518 0.547182 11.9052C0.428062 11.9586 0.321582 12.0366 0.234722 12.134C0.14786 12.2315 0.0825874 12.3462 0.0431854 12.4707C0.00378341 12.5951 -0.00885759 12.7265 0.00609141 12.8562V26.4159C0.0792374 30.0067 1.55395 33.4264 4.11506 35.9442C6.67617 38.4621 10.1205 39.8784 13.712 39.8903Z" fill="#4CAE4A"/>
<path d="M42.0417 26.4289L36.7217 15.0889C36.2457 14.0249 35.6577 13.8569 34.8737 13.8569H34.4537C33.5017 13.8569 32.7457 14.7249 32.6337 15.6769L30.7017 31.3849C30.5617 32.3649 31.5137 33.3449 32.5777 33.4289C33.6697 33.5129 34.6497 32.7289 34.7617 31.6929L35.9377 21.7249L39.8017 29.6489C40.1657 30.4329 40.8377 31.3569 42.0417 31.3569C43.2457 31.3569 43.9457 30.4329 44.3097 29.6489L48.1457 21.7249L49.3217 31.6929C49.4337 32.7289 50.4137 33.5129 51.5057 33.4289C52.5697 33.3449 53.4937 32.3649 53.3817 31.3849L51.4497 15.6769C51.3377 14.7249 50.5817 13.8569 49.6297 13.8569H49.2097C48.4257 13.8569 47.8657 14.0249 47.3617 15.0889L42.0417 26.4289Z" fill="#4CAE4A"/>
<path d="M64.6128 22.0609C63.4928 20.3249 61.5328 19.9609 60.6928 19.9609C57.3608 19.9609 54.3368 22.3969 54.3368 26.7369C54.3368 31.0769 57.3608 33.5409 60.6928 33.5409C62.1768 33.5409 63.7728 32.8129 64.6128 31.4409V31.6929C64.6408 32.6449 65.5368 33.4289 66.5728 33.4289C67.6368 33.4289 68.5328 32.6729 68.5328 31.6929V21.8089C68.5328 20.8289 67.6368 20.0729 66.5728 20.0729C65.5368 20.0729 64.6408 20.8569 64.6128 21.8089V22.0609ZM58.3688 26.7649C58.3688 25.0289 59.4888 23.4609 61.4488 23.4609C63.2128 23.4609 64.6408 25.0289 64.6408 26.7649C64.6408 28.5009 63.2128 30.0689 61.4488 30.0689C59.4888 30.0689 58.3688 28.5009 58.3688 26.7649Z" fill="#4CAE4A"/>
<path d="M77.7878 19.9609C76.4438 19.9609 75.0718 20.8009 74.3438 23.2369V21.8089C74.3438 20.8289 73.4478 20.0729 72.3838 20.0729C71.3478 20.0729 70.4518 20.8569 70.4238 21.8089V31.6929C70.4518 32.6449 71.3478 33.4289 72.3838 33.4289C73.4478 33.4289 74.3438 32.6729 74.3438 31.6929V28.4729C74.3998 25.1969 75.1278 23.5169 77.3118 23.5169C77.5638 23.5169 77.9838 23.5449 78.2638 23.5449C79.1318 23.5449 80.0558 23.0969 80.1958 22.1169C80.4478 20.2689 79.0758 19.9609 77.7878 19.9609Z" fill="#4CAE4A"/>
<path d="M88.9623 32.8689C89.5223 33.5409 90.8383 33.6249 91.5383 33.0369C92.3223 32.4489 92.3783 31.2729 91.6503 30.4889L87.3383 25.9809L90.3903 23.0129C91.0623 22.2289 90.8663 21.1089 90.1383 20.5209C89.3823 19.9049 88.2343 20.0449 87.6183 20.7449L84.5663 23.8249V14.6969C84.5663 13.7169 83.6703 12.9609 82.6063 12.9609C81.5703 12.9609 80.6743 13.7449 80.6463 14.6969V31.6929C80.6743 32.6449 81.5703 33.4289 82.6063 33.4289C83.6703 33.4289 84.5663 32.6729 84.5663 31.6929V28.1369L88.9623 32.8689Z" fill="#4CAE4A"/>
<path d="M96.0568 25.5889C96.3928 23.9369 97.5128 23.2089 98.9688 23.2089C100.425 23.2089 101.517 23.9929 101.713 25.5889H96.0568ZM103.953 29.7609C103.393 29.1169 102.385 28.9489 101.489 29.5649C100.677 30.1249 100.005 30.1809 99.2212 30.1809C97.8488 30.1809 96.1968 29.5369 96.0008 28.0249H104.429C105.045 28.0249 105.633 27.5209 105.633 26.8209C105.633 22.7049 102.665 19.9609 98.9407 19.9609C95.1887 19.9609 92.1088 22.5929 92.1088 26.7089C92.1088 30.8249 95.1887 33.5409 98.9407 33.5409C100.481 33.5409 102.133 33.2329 103.449 32.3649C104.401 31.8049 104.681 30.6009 103.953 29.7609Z" fill="#4CAE4A"/>
<path d="M106.667 20.2129C105.883 20.2129 105.267 20.9129 105.267 21.7529C105.267 22.5649 105.883 23.2649 106.667 23.2929H107.731V31.6929C107.759 32.6449 108.655 33.4289 109.691 33.4289C110.755 33.4289 111.651 32.6729 111.651 31.6929V23.2929H113.135C113.919 23.2649 114.535 22.5649 114.535 21.7529C114.535 20.9129 113.919 20.2129 113.135 20.2129H111.651V16.7969C111.651 15.8169 110.755 15.0609 109.691 15.0609C108.655 15.0609 107.759 15.8449 107.731 16.7969V20.2129H106.667Z" fill="#4CAE4A"/>
<path d="M119.03 22.0609V21.8089C119.002 20.8569 118.106 20.0729 117.07 20.0729C116.006 20.0729 115.11 20.8289 115.11 21.8089V37.9369C115.11 38.9169 116.006 39.6729 117.07 39.6729C118.106 39.6729 119.002 38.8889 119.03 37.9369V31.4409C119.87 32.8129 121.466 33.5409 122.95 33.5409C126.282 33.5409 129.306 31.0769 129.306 26.7369C129.306 22.3969 126.282 19.9609 122.95 19.9609C122.11 19.9609 120.15 20.3249 119.03 22.0609ZM125.274 26.7649C125.274 28.5009 124.154 30.0689 122.194 30.0689C120.43 30.0689 119.002 28.5009 119.002 26.7649C119.002 25.0289 120.43 23.4609 122.194 23.4609C124.154 23.4609 125.274 25.0289 125.274 26.7649Z" fill="#4CAE4A"/>
<path d="M134.583 14.6969C134.583 13.7169 133.687 12.9609 132.623 12.9609C131.587 12.9609 130.691 13.7449 130.663 14.6969V31.6929C130.691 32.6449 131.587 33.4289 132.623 33.4289C133.687 33.4289 134.583 32.6729 134.583 31.6929V14.6969Z" fill="#4CAE4A"/>
<path d="M146.195 22.0609C145.075 20.3249 143.115 19.9609 142.275 19.9609C138.943 19.9609 135.919 22.3969 135.919 26.7369C135.919 31.0769 138.943 33.5409 142.275 33.5409C143.759 33.5409 145.355 32.8129 146.195 31.4409V31.6929C146.223 32.6449 147.119 33.4289 148.155 33.4289C149.219 33.4289 150.115 32.6729 150.115 31.6929V21.8089C150.115 20.8289 149.219 20.0729 148.155 20.0729C147.119 20.0729 146.223 20.8569 146.195 21.8089V22.0609ZM139.951 26.7649C139.951 25.0289 141.071 23.4609 143.031 23.4609C144.795 23.4609 146.223 25.0289 146.223 26.7649C146.223 28.5009 144.795 30.0689 143.031 30.0689C141.071 30.0689 139.951 28.5009 139.951 26.7649Z" fill="#4CAE4A"/>
<path d="M155.338 26.7929V26.7089C155.338 24.8889 156.85 23.7409 158.53 23.7409C159.23 23.7409 159.902 23.9369 160.462 24.2449C161.162 24.6369 162.31 24.8049 163.01 24.1049C163.794 23.3209 163.682 21.8929 162.758 21.2489C161.582 20.4089 160.098 19.9609 158.53 19.9609C154.778 19.9609 151.362 22.5929 151.362 26.7089V26.7929C151.362 30.9089 154.778 33.5409 158.53 33.5409C160.098 33.5409 161.582 33.0929 162.758 32.2529C163.682 31.6089 163.794 30.1809 163.01 29.3969C162.31 28.6969 161.162 28.8649 160.462 29.2569C159.902 29.5649 159.23 29.7609 158.53 29.7609C156.85 29.7609 155.338 28.6129 155.338 26.7929Z" fill="#4CAE4A"/>
<path d="M167.965 25.5889C168.301 23.9369 169.421 23.2089 170.877 23.2089C172.333 23.2089 173.425 23.9929 173.621 25.5889H167.965ZM175.861 29.7609C175.301 29.1169 174.293 28.9489 173.397 29.5649C172.585 30.1249 171.913 30.1809 171.129 30.1809C169.757 30.1809 168.105 29.5369 167.909 28.0249H176.337C176.953 28.0249 177.541 27.5209 177.541 26.8209C177.541 22.7049 174.573 19.9609 170.849 19.9609C167.097 19.9609 164.017 22.5929 164.017 26.7089C164.017 30.8249 167.097 33.5409 170.849 33.5409C172.389 33.5409 174.041 33.2329 175.357 32.3649C176.309 31.8049 176.589 30.6009 175.861 29.7609Z" fill="#4CAE4A"/>
<rect x="171" y="3" width="36" height="14" rx="3" fill="#4CAE4A" fill-opacity="0.55"/>
<path d="M180.604 13C180.538 12.873 180.491 12.7152 180.462 12.5264C180.12 12.9072 179.676 13.0977 179.129 13.0977C178.611 13.0977 178.182 12.9479 177.84 12.6484C177.501 12.349 177.332 11.9714 177.332 11.5156C177.332 10.9557 177.539 10.526 177.952 10.2266C178.369 9.92708 178.969 9.77572 179.754 9.77246H180.403V9.46973C180.403 9.22559 180.34 9.03027 180.213 8.88379C180.089 8.7373 179.892 8.66406 179.622 8.66406C179.384 8.66406 179.197 8.72103 179.061 8.83496C178.927 8.94889 178.86 9.10514 178.86 9.30371H177.449C177.449 8.99772 177.544 8.71452 177.732 8.4541C177.921 8.19368 178.188 7.99023 178.533 7.84375C178.878 7.69401 179.266 7.61914 179.695 7.61914C180.346 7.61914 180.862 7.78353 181.243 8.1123C181.627 8.43783 181.819 8.89681 181.819 9.48926V11.7793C181.823 12.2806 181.893 12.6598 182.029 12.917V13H180.604ZM179.437 12.0186C179.645 12.0186 179.837 11.973 180.013 11.8818C180.188 11.7874 180.319 11.6621 180.403 11.5059V10.5977H179.876C179.17 10.5977 178.794 10.8418 178.748 11.3301L178.743 11.4131C178.743 11.5889 178.805 11.7337 178.929 11.8477C179.052 11.9616 179.222 12.0186 179.437 12.0186ZM184.393 13H182.977V5.5H184.393V13ZM190.315 10.4072C190.315 11.221 190.13 11.8737 189.759 12.3652C189.391 12.8535 188.893 13.0977 188.265 13.0977C187.731 13.0977 187.299 12.9121 186.971 12.541V15.0312H185.56V7.7168H186.868L186.917 8.23438C187.259 7.82422 187.705 7.61914 188.255 7.61914C188.906 7.61914 189.412 7.86003 189.773 8.3418C190.135 8.82357 190.315 9.48763 190.315 10.334V10.4072ZM188.904 10.3047C188.904 9.81315 188.816 9.43392 188.641 9.16699C188.468 8.90007 188.216 8.7666 187.884 8.7666C187.441 8.7666 187.137 8.93587 186.971 9.27441V11.4375C187.143 11.7858 187.451 11.96 187.894 11.96C188.567 11.96 188.904 11.4082 188.904 10.3047ZM192.571 8.29297C192.946 7.84375 193.416 7.61914 193.982 7.61914C195.128 7.61914 195.709 8.28483 195.726 9.61621V13H194.314V9.65527C194.314 9.35254 194.249 9.12956 194.119 8.98633C193.989 8.83984 193.772 8.7666 193.47 8.7666C193.056 8.7666 192.757 8.92611 192.571 9.24512V13H191.16V5.5H192.571V8.29297ZM199.852 13C199.786 12.873 199.739 12.7152 199.71 12.5264C199.368 12.9072 198.924 13.0977 198.377 13.0977C197.859 13.0977 197.43 12.9479 197.088 12.6484C196.749 12.349 196.58 11.9714 196.58 11.5156C196.58 10.9557 196.787 10.526 197.2 10.2266C197.617 9.92708 198.217 9.77572 199.002 9.77246H199.651V9.46973C199.651 9.22559 199.588 9.03027 199.461 8.88379C199.337 8.7373 199.14 8.66406 198.87 8.66406C198.632 8.66406 198.445 8.72103 198.309 8.83496C198.175 8.94889 198.108 9.10514 198.108 9.30371H196.697C196.697 8.99772 196.792 8.71452 196.98 8.4541C197.169 8.19368 197.436 7.99023 197.781 7.84375C198.126 7.69401 198.514 7.61914 198.943 7.61914C199.594 7.61914 200.11 7.78353 200.491 8.1123C200.875 8.43783 201.067 8.89681 201.067 9.48926V11.7793C201.071 12.2806 201.141 12.6598 201.277 12.917V13H199.852ZM198.685 12.0186C198.893 12.0186 199.085 11.973 199.261 11.8818C199.437 11.7874 199.567 11.6621 199.651 11.5059V10.5977H199.124C198.418 10.5977 198.042 10.8418 197.996 11.3301L197.991 11.4131C197.991 11.5889 198.053 11.7337 198.177 11.8477C198.3 11.9616 198.47 12.0186 198.685 12.0186Z" fill="white"/>
</svg>
