<svg width="179" height="41" viewBox="0 0 179 41" fill="none" xmlns="http://www.w3.org/2000/svg">
<path d="M16.9603 35.576C18.4855 35.148 19.8749 34.3348 20.9951 33.2147C22.1152 32.0946 22.9284 30.7051 23.3564 29.1799C23.4051 28.9496 23.3618 28.7093 23.2357 28.5105C23.1096 28.3116 22.9107 28.17 22.6815 28.1159C22.4524 28.0618 22.2112 28.0995 22.0094 28.2209C21.8077 28.3424 21.6615 28.5379 21.602 28.7657C21.2612 29.9966 20.6039 31.1167 19.6954 32.0145C18.7869 32.9123 17.6591 33.5564 16.4242 33.8826C16.3074 33.9129 16.1979 33.9667 16.1025 34.0407C16.0071 34.1147 15.9278 34.2074 15.8694 34.313C15.811 34.4187 15.7746 34.5351 15.7627 34.6553C15.7507 34.7754 15.7633 34.8967 15.7998 35.0118C15.8362 35.1269 15.8957 35.2334 15.9746 35.3248C16.0535 35.4161 16.1502 35.4905 16.2588 35.5433C16.3674 35.596 16.4856 35.6262 16.6062 35.6318C16.7268 35.6374 16.8473 35.6185 16.9603 35.576" fill="#4CAE4A"/>
<path d="M14.5116 23.7592C14.753 23.756 14.9835 23.6587 15.1542 23.4881C15.3249 23.3174 15.4222 23.0868 15.4253 22.8455V7.56792C15.3993 7.34221 15.2912 7.13395 15.1216 6.98277C14.952 6.83159 14.7327 6.74805 14.5055 6.74805C14.2783 6.74805 14.059 6.83159 13.8894 6.98277C13.7198 7.13395 13.6117 7.34221 13.5857 7.56792V22.8455C13.5889 23.0889 13.6879 23.3213 13.8612 23.4923C14.0345 23.6633 14.2681 23.7592 14.5116 23.7592" fill="#4CAE4A"/>
<path d="M4.9357 23.7593C5.17804 23.7593 5.41045 23.663 5.5818 23.4917C5.75316 23.3203 5.84943 23.0879 5.84943 22.8456V7.56802C5.84943 7.32569 5.75316 7.09328 5.5818 6.92192C5.41045 6.75056 5.17804 6.6543 4.9357 6.6543C4.69336 6.6543 4.46095 6.75056 4.2896 6.92192C4.11824 7.09328 4.02197 7.32569 4.02197 7.56802V22.8456C4.02197 23.0879 4.11824 23.3203 4.2896 23.4917C4.46095 23.663 4.69336 23.7593 4.9357 23.7593" fill="#4CAE4A"/>
<path d="M11.3319 23.759C11.5733 23.7559 11.8039 23.6586 11.9745 23.4879C12.1452 23.3172 12.2425 23.0867 12.2456 22.8453V5.00933C12.2196 4.78361 12.1115 4.57535 11.9419 4.42417C11.7723 4.27299 11.553 4.18945 11.3258 4.18945C11.0986 4.18945 10.8793 4.27299 10.7097 4.42417C10.5401 4.57535 10.432 4.78361 10.406 5.00933V22.8453C10.4092 23.0888 10.5082 23.3211 10.6815 23.4922C10.8548 23.6632 11.0884 23.7591 11.3319 23.759" fill="#4CAE4A"/>
<path d="M8.11539 23.7591C8.35886 23.7591 8.59254 23.6632 8.76584 23.4922C8.93913 23.3212 9.0381 23.0888 9.0413 22.8454V1.57378C9.01528 1.34807 8.90718 1.13981 8.73757 0.988626C8.56796 0.837446 8.34869 0.753906 8.12148 0.753906C7.89427 0.753906 7.675 0.837446 7.50539 0.988626C7.33578 1.13981 7.22768 1.34807 7.20166 1.57378V22.8454C7.20482 23.0867 7.3021 23.3173 7.47277 23.488C7.64345 23.6587 7.87403 23.7559 8.11539 23.7591Z" fill="#4CAE4A"/>
<path d="M14.5238 40.6442C17.9497 40.6176 21.241 39.3066 23.747 36.9703C26.2529 34.634 27.7912 31.4426 28.0576 28.0269C28.324 24.6112 27.2991 21.2199 25.1857 18.5234C23.0723 15.8268 20.024 14.0213 16.6436 13.4639V15.3401C18.8608 15.7484 20.9154 16.7811 22.5658 18.3168C24.2163 19.8526 25.3941 21.8276 25.9608 24.0096C26.5274 26.1917 26.4594 28.4902 25.7648 30.635C25.0701 32.7798 23.7776 34.6817 22.0393 36.1172C20.3009 37.5527 18.1889 38.4622 15.9515 38.7387C13.714 39.0152 11.4441 38.6473 9.4086 37.6781C7.37306 36.709 5.65646 35.179 4.46055 33.2679C3.26464 31.3568 2.63911 29.144 2.6575 26.8896V13.6101C2.67245 13.4804 2.65981 13.349 2.6204 13.2246C2.581 13.1001 2.51573 12.9854 2.42887 12.8879C2.34201 12.7905 2.23553 12.7125 2.11641 12.6591C1.99728 12.6057 1.86822 12.5781 1.73768 12.5781C1.60714 12.5781 1.47807 12.6057 1.35895 12.6591C1.23983 12.7125 1.13335 12.7905 1.04649 12.8879C0.959628 12.9854 0.894355 13.1001 0.854953 13.2246C0.815551 13.349 0.80291 13.4804 0.817859 13.6101V27.1698C0.891005 30.7606 2.36572 34.1803 4.92683 36.6981C7.48794 39.216 10.9323 40.6323 14.5238 40.6442" fill="#4CAE4A"/>
<path d="M42.8535 27.1828L37.5335 15.8428C37.0575 14.7788 36.4695 14.6108 35.6855 14.6108H35.2655C34.3135 14.6108 33.5575 15.4788 33.4455 16.4308L31.5135 32.1388C31.3735 33.1188 32.3255 34.0988 33.3895 34.1828C34.4815 34.2668 35.4615 33.4828 35.5735 32.4468L36.7495 22.4788L40.6135 30.4028C40.9775 31.1868 41.6495 32.1108 42.8535 32.1108C44.0575 32.1108 44.7575 31.1868 45.1215 30.4028L48.9575 22.4788L50.1335 32.4468C50.2455 33.4828 51.2255 34.2668 52.3175 34.1828C53.3815 34.0988 54.3055 33.1188 54.1935 32.1388L52.2615 16.4308C52.1495 15.4788 51.3935 14.6108 50.4415 14.6108H50.0215C49.2375 14.6108 48.6775 14.7788 48.1735 15.8428L42.8535 27.1828Z" fill="#4CAE4A"/>
<path d="M65.4246 22.8148C64.3046 21.0788 62.3446 20.7148 61.5046 20.7148C58.1726 20.7148 55.1486 23.1508 55.1486 27.4908C55.1486 31.8308 58.1726 34.2948 61.5046 34.2948C62.9886 34.2948 64.5846 33.5668 65.4246 32.1948V32.4468C65.4526 33.3988 66.3486 34.1828 67.3846 34.1828C68.4486 34.1828 69.3446 33.4268 69.3446 32.4468V22.5628C69.3446 21.5828 68.4486 20.8268 67.3846 20.8268C66.3486 20.8268 65.4526 21.6108 65.4246 22.5628V22.8148ZM59.1806 27.5188C59.1806 25.7828 60.3006 24.2148 62.2606 24.2148C64.0246 24.2148 65.4526 25.7828 65.4526 27.5188C65.4526 29.2548 64.0246 30.8228 62.2606 30.8228C60.3006 30.8228 59.1806 29.2548 59.1806 27.5188Z" fill="#4CAE4A"/>
<path d="M78.5996 20.7148C77.2556 20.7148 75.8836 21.5548 75.1556 23.9908V22.5628C75.1556 21.5828 74.2596 20.8268 73.1956 20.8268C72.1596 20.8268 71.2636 21.6108 71.2356 22.5628V32.4468C71.2636 33.3988 72.1596 34.1828 73.1956 34.1828C74.2596 34.1828 75.1556 33.4268 75.1556 32.4468V29.2268C75.2116 25.9508 75.9396 24.2708 78.1236 24.2708C78.3756 24.2708 78.7956 24.2988 79.0756 24.2988C79.9436 24.2988 80.8676 23.8508 81.0076 22.8708C81.2596 21.0228 79.8876 20.7148 78.5996 20.7148Z" fill="#4CAE4A"/>
<path d="M89.7741 33.6228C90.3341 34.2948 91.6501 34.3788 92.3501 33.7908C93.1341 33.2028 93.1901 32.0268 92.4621 31.2428L88.1501 26.7348L91.2021 23.7668C91.8741 22.9828 91.6781 21.8628 90.9501 21.2748C90.1941 20.6588 89.0461 20.7988 88.4301 21.4988L85.3781 24.5788V15.4508C85.3781 14.4708 84.4821 13.7148 83.4181 13.7148C82.3821 13.7148 81.4861 14.4988 81.4581 15.4508V32.4468C81.4861 33.3988 82.3821 34.1828 83.4181 34.1828C84.4821 34.1828 85.3781 33.4268 85.3781 32.4468V28.8908L89.7741 33.6228Z" fill="#4CAE4A"/>
<path d="M96.8686 26.3428C97.2046 24.6908 98.3246 23.9628 99.7806 23.9628C101.237 23.9628 102.329 24.7468 102.525 26.3428H96.8686ZM104.765 30.5148C104.205 29.8708 103.197 29.7028 102.301 30.3188C101.489 30.8788 100.817 30.9348 100.033 30.9348C98.6606 30.9348 97.0086 30.2908 96.8126 28.7788H105.241C105.857 28.7788 106.445 28.2748 106.445 27.5748C106.445 23.4588 103.477 20.7148 99.7525 20.7148C96.0005 20.7148 92.9206 23.3468 92.9206 27.4628C92.9206 31.5788 96.0005 34.2948 99.7525 34.2948C101.293 34.2948 102.945 33.9868 104.261 33.1188C105.213 32.5588 105.493 31.3548 104.765 30.5148Z" fill="#4CAE4A"/>
<path d="M107.479 20.9668C106.695 20.9668 106.079 21.6668 106.079 22.5068C106.079 23.3188 106.695 24.0188 107.479 24.0468H108.543V32.4468C108.571 33.3988 109.467 34.1828 110.503 34.1828C111.567 34.1828 112.463 33.4268 112.463 32.4468V24.0468H113.947C114.731 24.0188 115.347 23.3188 115.347 22.5068C115.347 21.6668 114.731 20.9668 113.947 20.9668H112.463V17.5508C112.463 16.5708 111.567 15.8148 110.503 15.8148C109.467 15.8148 108.571 16.5988 108.543 17.5508V20.9668H107.479Z" fill="#4CAE4A"/>
<path d="M119.842 22.8148V22.5628C119.814 21.6108 118.918 20.8268 117.882 20.8268C116.818 20.8268 115.922 21.5828 115.922 22.5628V38.6908C115.922 39.6708 116.818 40.4268 117.882 40.4268C118.918 40.4268 119.814 39.6428 119.842 38.6908V32.1948C120.682 33.5668 122.278 34.2948 123.762 34.2948C127.094 34.2948 130.118 31.8308 130.118 27.4908C130.118 23.1508 127.094 20.7148 123.762 20.7148C122.922 20.7148 120.962 21.0788 119.842 22.8148ZM126.086 27.5188C126.086 29.2548 124.966 30.8228 123.006 30.8228C121.242 30.8228 119.814 29.2548 119.814 27.5188C119.814 25.7828 121.242 24.2148 123.006 24.2148C124.966 24.2148 126.086 25.7828 126.086 27.5188Z" fill="#4CAE4A"/>
<path d="M135.395 15.4508C135.395 14.4708 134.499 13.7148 133.435 13.7148C132.399 13.7148 131.503 14.4988 131.475 15.4508V32.4468C131.503 33.3988 132.399 34.1828 133.435 34.1828C134.499 34.1828 135.395 33.4268 135.395 32.4468V15.4508Z" fill="#4CAE4A"/>
<path d="M147.007 22.8148C145.887 21.0788 143.927 20.7148 143.087 20.7148C139.755 20.7148 136.731 23.1508 136.731 27.4908C136.731 31.8308 139.755 34.2948 143.087 34.2948C144.571 34.2948 146.167 33.5668 147.007 32.1948V32.4468C147.035 33.3988 147.931 34.1828 148.967 34.1828C150.031 34.1828 150.927 33.4268 150.927 32.4468V22.5628C150.927 21.5828 150.031 20.8268 148.967 20.8268C147.931 20.8268 147.035 21.6108 147.007 22.5628V22.8148ZM140.763 27.5188C140.763 25.7828 141.883 24.2148 143.843 24.2148C145.607 24.2148 147.035 25.7828 147.035 27.5188C147.035 29.2548 145.607 30.8228 143.843 30.8228C141.883 30.8228 140.763 29.2548 140.763 27.5188Z" fill="#4CAE4A"/>
<path d="M156.15 27.5468V27.4628C156.15 25.6428 157.662 24.4948 159.342 24.4948C160.042 24.4948 160.714 24.6908 161.274 24.9988C161.974 25.3908 163.122 25.5588 163.822 24.8588C164.606 24.0748 164.494 22.6468 163.57 22.0028C162.394 21.1628 160.91 20.7148 159.342 20.7148C155.59 20.7148 152.174 23.3468 152.174 27.4628V27.5468C152.174 31.6628 155.59 34.2948 159.342 34.2948C160.91 34.2948 162.394 33.8468 163.57 33.0068C164.494 32.3628 164.606 30.9348 163.822 30.1508C163.122 29.4508 161.974 29.6188 161.274 30.0108C160.714 30.3188 160.042 30.5148 159.342 30.5148C157.662 30.5148 156.15 29.3668 156.15 27.5468Z" fill="#4CAE4A"/>
<path d="M168.777 26.3428C169.113 24.6908 170.233 23.9628 171.689 23.9628C173.145 23.9628 174.237 24.7468 174.433 26.3428H168.777ZM176.673 30.5148C176.113 29.8708 175.105 29.7028 174.209 30.3188C173.397 30.8788 172.725 30.9348 171.941 30.9348C170.569 30.9348 168.917 30.2908 168.721 28.7788H177.149C177.765 28.7788 178.353 28.2748 178.353 27.5748C178.353 23.4588 175.385 20.7148 171.661 20.7148C167.909 20.7148 164.829 23.3468 164.829 27.4628C164.829 31.5788 167.909 34.2948 171.661 34.2948C173.201 34.2948 174.853 33.9868 176.169 33.1188C177.121 32.5588 177.401 31.3548 176.673 30.5148Z" fill="#4CAE4A"/>
</svg>
